<mxfile host="Electron" modified="2024-07-11T22:29:54.391Z" agent="Mozilla/5.0 (Windows NT 10.0; Win64; x64) AppleWebKit/537.36 (KHTML, like Gecko) draw.io/24.6.4 Chrome/124.0.6367.207 Electron/30.0.6 Safari/537.36" etag="JCtRRp6gy-wp2S0-mGVt" version="24.6.4" type="device">
  <diagram name="PÃ¡gina-1" id="yDF35XsyZQFlC5zcMmwx">
    <mxGraphModel dx="864" dy="516" grid="1" gridSize="10" guides="1" tooltips="1" connect="1" arrows="1" fold="1" page="1" pageScale="1" pageWidth="827" pageHeight="1169" math="0" shadow="0">
      <root>
        <mxCell id="0" />
        <mxCell id="1" parent="0" />
        <mxCell id="-Wf9Y3hd4rYZPQG8L9OT-5" value="Usuario" style="swimlane;fontStyle=1;align=center;verticalAlign=top;childLayout=stackLayout;horizontal=1;startSize=26;horizontalStack=0;resizeParent=1;resizeParentMax=0;resizeLast=0;collapsible=1;marginBottom=0;whiteSpace=wrap;html=1;" vertex="1" parent="1">
          <mxGeometry x="120" y="80" width="160" height="190" as="geometry" />
        </mxCell>
        <mxCell id="-Wf9Y3hd4rYZPQG8L9OT-6" value="ID&lt;div&gt;Nombre&lt;/div&gt;&lt;div&gt;Edad&lt;/div&gt;&lt;div&gt;Genero&lt;/div&gt;&lt;div&gt;Peso&lt;/div&gt;&lt;div&gt;Altura&lt;/div&gt;&lt;div&gt;dietas&lt;/div&gt;" style="text;strokeColor=none;fillColor=none;align=left;verticalAlign=top;spacingLeft=4;spacingRight=4;overflow=hidden;rotatable=0;points=[[0,0.5],[1,0.5]];portConstraint=eastwest;whiteSpace=wrap;html=1;" vertex="1" parent="-Wf9Y3hd4rYZPQG8L9OT-5">
          <mxGeometry y="26" width="160" height="114" as="geometry" />
        </mxCell>
        <mxCell id="-Wf9Y3hd4rYZPQG8L9OT-7" value="" style="line;strokeWidth=1;fillColor=none;align=left;verticalAlign=middle;spacingTop=-1;spacingLeft=3;spacingRight=3;rotatable=0;labelPosition=right;points=[];portConstraint=eastwest;strokeColor=inherit;" vertex="1" parent="-Wf9Y3hd4rYZPQG8L9OT-5">
          <mxGeometry y="140" width="160" height="8" as="geometry" />
        </mxCell>
        <mxCell id="-Wf9Y3hd4rYZPQG8L9OT-8" value="obtenerAlimentos()" style="text;strokeColor=none;fillColor=none;align=left;verticalAlign=top;spacingLeft=4;spacingRight=4;overflow=hidden;rotatable=0;points=[[0,0.5],[1,0.5]];portConstraint=eastwest;whiteSpace=wrap;html=1;" vertex="1" parent="-Wf9Y3hd4rYZPQG8L9OT-5">
          <mxGeometry y="148" width="160" height="42" as="geometry" />
        </mxCell>
        <mxCell id="-Wf9Y3hd4rYZPQG8L9OT-9" value="Dieta" style="swimlane;fontStyle=1;align=center;verticalAlign=top;childLayout=stackLayout;horizontal=1;startSize=26;horizontalStack=0;resizeParent=1;resizeParentMax=0;resizeLast=0;collapsible=1;marginBottom=0;whiteSpace=wrap;html=1;" vertex="1" parent="1">
          <mxGeometry x="600" y="80" width="160" height="120" as="geometry" />
        </mxCell>
        <mxCell id="-Wf9Y3hd4rYZPQG8L9OT-10" value="Nombre&lt;div&gt;Alimentos&lt;/div&gt;" style="text;strokeColor=none;fillColor=none;align=left;verticalAlign=top;spacingLeft=4;spacingRight=4;overflow=hidden;rotatable=0;points=[[0,0.5],[1,0.5]];portConstraint=eastwest;whiteSpace=wrap;html=1;" vertex="1" parent="-Wf9Y3hd4rYZPQG8L9OT-9">
          <mxGeometry y="26" width="160" height="44" as="geometry" />
        </mxCell>
        <mxCell id="-Wf9Y3hd4rYZPQG8L9OT-11" value="" style="line;strokeWidth=1;fillColor=none;align=left;verticalAlign=middle;spacingTop=-1;spacingLeft=3;spacingRight=3;rotatable=0;labelPosition=right;points=[];portConstraint=eastwest;strokeColor=inherit;" vertex="1" parent="-Wf9Y3hd4rYZPQG8L9OT-9">
          <mxGeometry y="70" width="160" height="8" as="geometry" />
        </mxCell>
        <mxCell id="-Wf9Y3hd4rYZPQG8L9OT-12" value="agregarAlimento()&lt;div&gt;eliminarAlimento()&lt;/div&gt;" style="text;strokeColor=none;fillColor=none;align=left;verticalAlign=top;spacingLeft=4;spacingRight=4;overflow=hidden;rotatable=0;points=[[0,0.5],[1,0.5]];portConstraint=eastwest;whiteSpace=wrap;html=1;" vertex="1" parent="-Wf9Y3hd4rYZPQG8L9OT-9">
          <mxGeometry y="78" width="160" height="42" as="geometry" />
        </mxCell>
        <mxCell id="-Wf9Y3hd4rYZPQG8L9OT-13" style="edgeStyle=orthogonalEdgeStyle;rounded=0;orthogonalLoop=1;jettySize=auto;html=1;entryX=0.5;entryY=1;entryDx=0;entryDy=0;entryPerimeter=0;" edge="1" parent="1" source="-Wf9Y3hd4rYZPQG8L9OT-14" target="-Wf9Y3hd4rYZPQG8L9OT-12">
          <mxGeometry relative="1" as="geometry">
            <mxPoint x="680" y="210" as="targetPoint" />
          </mxGeometry>
        </mxCell>
        <mxCell id="-Wf9Y3hd4rYZPQG8L9OT-14" value="Alimento" style="swimlane;fontStyle=1;align=center;verticalAlign=top;childLayout=stackLayout;horizontal=1;startSize=26;horizontalStack=0;resizeParent=1;resizeParentMax=0;resizeLast=0;collapsible=1;marginBottom=0;whiteSpace=wrap;html=1;" vertex="1" parent="1">
          <mxGeometry x="600" y="280" width="160" height="118" as="geometry" />
        </mxCell>
        <mxCell id="-Wf9Y3hd4rYZPQG8L9OT-15" value="ID&lt;div&gt;Nombre&lt;/div&gt;&lt;div&gt;TipoAlimento&lt;/div&gt;&lt;div&gt;Calorias&lt;/div&gt;&lt;div&gt;porcion&lt;/div&gt;" style="text;strokeColor=none;fillColor=none;align=left;verticalAlign=top;spacingLeft=4;spacingRight=4;overflow=hidden;rotatable=0;points=[[0,0.5],[1,0.5]];portConstraint=eastwest;whiteSpace=wrap;html=1;" vertex="1" parent="-Wf9Y3hd4rYZPQG8L9OT-14">
          <mxGeometry y="26" width="160" height="84" as="geometry" />
        </mxCell>
        <mxCell id="-Wf9Y3hd4rYZPQG8L9OT-16" value="" style="line;strokeWidth=1;fillColor=none;align=left;verticalAlign=middle;spacingTop=-1;spacingLeft=3;spacingRight=3;rotatable=0;labelPosition=right;points=[];portConstraint=eastwest;strokeColor=inherit;" vertex="1" parent="-Wf9Y3hd4rYZPQG8L9OT-14">
          <mxGeometry y="110" width="160" height="8" as="geometry" />
        </mxCell>
        <mxCell id="-Wf9Y3hd4rYZPQG8L9OT-17" value="PlanificadorDietas" style="swimlane;fontStyle=1;align=center;verticalAlign=top;childLayout=stackLayout;horizontal=1;startSize=26;horizontalStack=0;resizeParent=1;resizeParentMax=0;resizeLast=0;collapsible=1;marginBottom=0;whiteSpace=wrap;html=1;" vertex="1" parent="1">
          <mxGeometry x="360" y="80" width="160" height="160" as="geometry" />
        </mxCell>
        <mxCell id="-Wf9Y3hd4rYZPQG8L9OT-18" value="Usuarios&lt;div&gt;Dietas&lt;/div&gt;" style="text;strokeColor=none;fillColor=none;align=left;verticalAlign=top;spacingLeft=4;spacingRight=4;overflow=hidden;rotatable=0;points=[[0,0.5],[1,0.5]];portConstraint=eastwest;whiteSpace=wrap;html=1;" vertex="1" parent="-Wf9Y3hd4rYZPQG8L9OT-17">
          <mxGeometry y="26" width="160" height="44" as="geometry" />
        </mxCell>
        <mxCell id="-Wf9Y3hd4rYZPQG8L9OT-19" value="" style="line;strokeWidth=1;fillColor=none;align=left;verticalAlign=middle;spacingTop=-1;spacingLeft=3;spacingRight=3;rotatable=0;labelPosition=right;points=[];portConstraint=eastwest;strokeColor=inherit;" vertex="1" parent="-Wf9Y3hd4rYZPQG8L9OT-17">
          <mxGeometry y="70" width="160" height="8" as="geometry" />
        </mxCell>
        <mxCell id="-Wf9Y3hd4rYZPQG8L9OT-20" value="crearDieta()&lt;div&gt;AsignarDieta()&lt;/div&gt;&lt;div&gt;obtenerDietas()&lt;/div&gt;&lt;div&gt;agregarUsuario()&lt;/div&gt;&lt;div&gt;obtenerUsuarios()&lt;/div&gt;" style="text;strokeColor=none;fillColor=none;align=left;verticalAlign=top;spacingLeft=4;spacingRight=4;overflow=hidden;rotatable=0;points=[[0,0.5],[1,0.5]];portConstraint=eastwest;whiteSpace=wrap;html=1;" vertex="1" parent="-Wf9Y3hd4rYZPQG8L9OT-17">
          <mxGeometry y="78" width="160" height="82" as="geometry" />
        </mxCell>
        <mxCell id="-Wf9Y3hd4rYZPQG8L9OT-21" style="edgeStyle=orthogonalEdgeStyle;rounded=0;orthogonalLoop=1;jettySize=auto;html=1;entryX=1;entryY=0.5;entryDx=0;entryDy=0;" edge="1" parent="1" source="-Wf9Y3hd4rYZPQG8L9OT-10" target="-Wf9Y3hd4rYZPQG8L9OT-18">
          <mxGeometry relative="1" as="geometry" />
        </mxCell>
        <mxCell id="-Wf9Y3hd4rYZPQG8L9OT-22" style="edgeStyle=orthogonalEdgeStyle;rounded=0;orthogonalLoop=1;jettySize=auto;html=1;entryX=-0.019;entryY=0.119;entryDx=0;entryDy=0;entryPerimeter=0;" edge="1" parent="1" source="-Wf9Y3hd4rYZPQG8L9OT-6" target="-Wf9Y3hd4rYZPQG8L9OT-20">
          <mxGeometry relative="1" as="geometry" />
        </mxCell>
      </root>
    </mxGraphModel>
  </diagram>
</mxfile>
